<svg width="138" height="30" viewBox="0 0 138 30" fill="none" xmlns="http://www.w3.org/2000/svg">
<g id="OS" clip-path="url(#clip0_87_15)">
<g id="OpenStroke">
<path d="M41.318 21.4859C40.058 21.4859 38.954 21.2099 38.006 20.6579C37.07 20.1059 36.332 19.3439 35.792 18.3719C35.264 17.3879 35 16.2539 35 14.9699C35 13.6859 35.264 12.5579 35.792 11.5859C36.332 10.6019 37.07 9.83394 38.006 9.28194C38.954 8.72994 40.058 8.45394 41.318 8.45394C42.566 8.45394 43.664 8.72994 44.612 9.28194C45.56 9.83394 46.298 10.6019 46.826 11.5859C47.354 12.5579 47.618 13.6859 47.618 14.9699C47.618 16.2539 47.354 17.3879 46.826 18.3719C46.298 19.3439 45.56 20.1059 44.612 20.6579C43.664 21.2099 42.566 21.4859 41.318 21.4859ZM41.318 19.4159C42.518 19.4159 43.472 19.0199 44.18 18.2279C44.9 17.4359 45.26 16.3499 45.26 14.9699C45.26 13.5899 44.9 12.5039 44.18 11.7119C43.472 10.9199 42.518 10.5239 41.318 10.5239C40.118 10.5239 39.158 10.9199 38.438 11.7119C37.718 12.5039 37.358 13.5899 37.358 14.9699C37.358 16.3499 37.718 17.4359 38.438 18.2279C39.158 19.0199 40.118 19.4159 41.318 19.4159Z" fill="#1E3050"/>
<path d="M49.5983 25.2299V12.3419H51.6503L51.9023 13.6199C52.1903 13.2239 52.5683 12.8759 53.0363 12.5759C53.5163 12.2759 54.1343 12.1259 54.8903 12.1259C55.7303 12.1259 56.4803 12.3299 57.1403 12.7379C57.8003 13.1459 58.3223 13.7039 58.7063 14.4119C59.0903 15.1199 59.2823 15.9239 59.2823 16.8239C59.2823 17.7239 59.0903 18.5279 58.7063 19.2359C58.3223 19.9319 57.8003 20.4839 57.1403 20.8919C56.4803 21.2879 55.7303 21.4859 54.8903 21.4859C54.2183 21.4859 53.6303 21.3599 53.1263 21.1079C52.6223 20.8559 52.2143 20.5019 51.9023 20.0459V25.2299H49.5983ZM54.4043 19.4699C55.1363 19.4699 55.7423 19.2239 56.2223 18.7319C56.7023 18.2399 56.9423 17.6039 56.9423 16.8239C56.9423 16.0439 56.7023 15.4019 56.2223 14.8979C55.7423 14.3939 55.1363 14.1419 54.4043 14.1419C53.6603 14.1419 53.0483 14.3939 52.5683 14.8979C52.1003 15.3899 51.8663 16.0259 51.8663 16.8059C51.8663 17.5859 52.1003 18.2279 52.5683 18.7319C53.0483 19.2239 53.6603 19.4699 54.4043 19.4699Z" fill="#1E3050"/>
<path d="M65.6785 21.4859C64.7785 21.4859 63.9805 21.2939 63.2845 20.9099C62.5885 20.5259 62.0425 19.9859 61.6465 19.2899C61.2505 18.5939 61.0525 17.7899 61.0525 16.8779C61.0525 15.9539 61.2445 15.1319 61.6285 14.4119C62.0245 13.6919 62.5645 13.1339 63.2485 12.7379C63.9445 12.3299 64.7605 12.1259 65.6965 12.1259C66.5725 12.1259 67.3465 12.3179 68.0185 12.7019C68.6905 13.0859 69.2125 13.6139 69.5845 14.2859C69.9685 14.9459 70.1605 15.6839 70.1605 16.4999C70.1605 16.6319 70.1545 16.7699 70.1425 16.9139C70.1425 17.0579 70.1365 17.2079 70.1245 17.3639H63.3385C63.3865 18.0599 63.6265 18.6059 64.0585 19.0019C64.5025 19.3979 65.0365 19.5959 65.6605 19.5959C66.1285 19.5959 66.5185 19.4939 66.8305 19.2899C67.1545 19.0739 67.3945 18.7979 67.5505 18.4619H69.8905C69.7225 19.0259 69.4405 19.5419 69.0445 20.0099C68.6605 20.4659 68.1805 20.8259 67.6045 21.0899C67.0405 21.3539 66.3985 21.4859 65.6785 21.4859ZM65.6965 13.9979C65.1325 13.9979 64.6345 14.1599 64.2025 14.4839C63.7705 14.7959 63.4945 15.2759 63.3745 15.9239H67.8205C67.7845 15.3359 67.5685 14.8679 67.1725 14.5199C66.7765 14.1719 66.2845 13.9979 65.6965 13.9979Z" fill="#1E3050"/>
<path d="M72.0983 21.2699V12.3419H74.1323L74.3123 13.8539C74.5883 13.3259 74.9843 12.9059 75.5003 12.5939C76.0283 12.2819 76.6463 12.1259 77.3543 12.1259C78.4583 12.1259 79.3163 12.4739 79.9283 13.1699C80.5403 13.8659 80.8463 14.8859 80.8463 16.2299V21.2699H78.5423V16.4459C78.5423 15.6779 78.3863 15.0899 78.0743 14.6819C77.7623 14.2739 77.2763 14.0699 76.6163 14.0699C75.9683 14.0699 75.4343 14.2979 75.0143 14.7539C74.6063 15.2099 74.4023 15.8459 74.4023 16.6619V21.2699H72.0983Z" fill="#1E3050"/>
<path d="M87.4055 21.4859C86.4815 21.4859 85.6655 21.3299 84.9575 21.0179C84.2495 20.6939 83.6915 20.2379 83.2835 19.6499C82.8755 19.0499 82.6655 18.3239 82.6535 17.4719H85.0835C85.1074 18.0599 85.3175 18.5579 85.7135 18.9659C86.1215 19.3619 86.6795 19.5599 87.3875 19.5599C87.9995 19.5599 88.4855 19.4159 88.8455 19.1279C89.2055 18.8279 89.3855 18.4319 89.3855 17.9399C89.3855 17.4239 89.2235 17.0219 88.8995 16.7339C88.5875 16.4459 88.1675 16.2119 87.6395 16.0319C87.1115 15.8519 86.5475 15.6599 85.9475 15.4559C84.9755 15.1199 84.2314 14.6879 83.7155 14.1599C83.2114 13.6319 82.9595 12.9299 82.9595 12.0539C82.9475 11.3099 83.1215 10.6739 83.4815 10.1459C83.8535 9.60594 84.3574 9.19194 84.9935 8.90394C85.6295 8.60394 86.3615 8.45394 87.1895 8.45394C88.0295 8.45394 88.7675 8.60394 89.4035 8.90394C90.0515 9.20394 90.5555 9.62394 90.9155 10.1639C91.2875 10.7039 91.4855 11.3459 91.5095 12.0899H89.0435C89.0315 11.6459 88.8575 11.2559 88.5215 10.9199C88.1975 10.5719 87.7415 10.3979 87.1535 10.3979C86.6495 10.3859 86.2235 10.5119 85.8755 10.7759C85.5395 11.0279 85.3715 11.3999 85.3715 11.8919C85.3715 12.3119 85.5035 12.6479 85.7675 12.8999C86.0315 13.1399 86.3915 13.3439 86.8475 13.5119C87.3035 13.6799 87.8255 13.8599 88.4135 14.0519C89.0375 14.2679 89.6075 14.5199 90.1235 14.8079C90.6395 15.0959 91.0535 15.4799 91.3655 15.9599C91.6775 16.4279 91.8335 17.0339 91.8335 17.7779C91.8335 18.4379 91.6655 19.0499 91.3295 19.6139C90.9935 20.1779 90.4955 20.6339 89.8355 20.9819C89.1755 21.3179 88.3655 21.4859 87.4055 21.4859Z" fill="#1E3050"/>
<path d="M97.7677 21.2699C96.8317 21.2699 96.0817 21.0419 95.5177 20.5859C94.9537 20.1299 94.6717 19.3199 94.6717 18.1559V14.2679H93.1417V12.3419H94.6717L94.9417 9.94794H96.9757V12.3419H99.3877V14.2679H96.9757V18.1739C96.9757 18.6059 97.0657 18.9059 97.2457 19.0739C97.4377 19.2299 97.7617 19.3079 98.2177 19.3079H99.3337V21.2699H97.7677Z" fill="#1E3050"/>
<path d="M101.366 21.2699V12.3419H103.418L103.634 14.0159C103.958 13.4399 104.396 12.9839 104.948 12.6479C105.512 12.2999 106.172 12.1259 106.928 12.1259V14.5559H106.28C105.776 14.5559 105.326 14.6339 104.93 14.7899C104.534 14.9459 104.222 15.2159 103.994 15.5999C103.778 15.9839 103.67 16.5179 103.67 17.2019V21.2699H101.366Z" fill="#1E3050"/>
<path d="M112.628 21.4859C111.764 21.4859 110.984 21.2879 110.288 20.8919C109.604 20.4959 109.058 19.9499 108.65 19.2539C108.254 18.5459 108.056 17.7299 108.056 16.8059C108.056 15.8819 108.26 15.0719 108.668 14.3759C109.076 13.6679 109.622 13.1159 110.306 12.7199C111.002 12.3239 111.782 12.1259 112.646 12.1259C113.498 12.1259 114.266 12.3239 114.95 12.7199C115.646 13.1159 116.192 13.6679 116.588 14.3759C116.996 15.0719 117.2 15.8819 117.2 16.8059C117.2 17.7299 116.996 18.5459 116.588 19.2539C116.192 19.9499 115.646 20.4959 114.95 20.8919C114.254 21.2879 113.48 21.4859 112.628 21.4859ZM112.628 19.4879C113.228 19.4879 113.75 19.2659 114.194 18.8219C114.638 18.3659 114.86 17.6939 114.86 16.8059C114.86 15.9179 114.638 15.2519 114.194 14.8079C113.75 14.3519 113.234 14.1239 112.646 14.1239C112.034 14.1239 111.506 14.3519 111.062 14.8079C110.63 15.2519 110.414 15.9179 110.414 16.8059C110.414 17.6939 110.63 18.3659 111.062 18.8219C111.506 19.2659 112.028 19.4879 112.628 19.4879Z" fill="#1E3050"/>
<path d="M119.26 21.2699V8.30994H121.564V15.9599L124.732 12.3419H127.468L123.814 16.4099L128.062 21.2699H125.182L121.564 16.7879V21.2699H119.26Z" fill="#1E3050"/>
<path d="M133.091 21.4859C132.191 21.4859 131.393 21.2939 130.697 20.9099C130.001 20.5259 129.455 19.9859 129.059 19.2899C128.663 18.5939 128.465 17.7899 128.465 16.8779C128.465 15.9539 128.657 15.1319 129.041 14.4119C129.437 13.6919 129.977 13.1339 130.661 12.7379C131.357 12.3299 132.173 12.1259 133.109 12.1259C133.985 12.1259 134.759 12.3179 135.431 12.7019C136.103 13.0859 136.625 13.6139 136.997 14.2859C137.381 14.9459 137.573 15.6839 137.573 16.4999C137.573 16.6319 137.567 16.7699 137.555 16.9139C137.555 17.0579 137.549 17.2079 137.537 17.3639H130.751C130.799 18.0599 131.039 18.6059 131.471 19.0019C131.915 19.3979 132.449 19.5959 133.073 19.5959C133.541 19.5959 133.931 19.4939 134.243 19.2899C134.567 19.0739 134.807 18.7979 134.963 18.4619H137.303C137.135 19.0259 136.853 19.5419 136.457 20.0099C136.073 20.4659 135.593 20.8259 135.017 21.0899C134.453 21.3539 133.811 21.4859 133.091 21.4859ZM133.109 13.9979C132.545 13.9979 132.047 14.1599 131.615 14.4839C131.183 14.7959 130.907 15.2759 130.787 15.9239H135.233C135.197 15.3359 134.981 14.8679 134.585 14.5199C134.189 14.1719 133.697 13.9979 133.109 13.9979Z" fill="#1E3050"/>
</g>
<path id="Rectangle 330 (Stroke)" fill-rule="evenodd" clip-rule="evenodd" d="M15 27.6923C17.549 27.6923 19.6154 25.6259 19.6154 23.0769L19.6154 21.9231L10.3846 21.9231L10.3846 23.0769C10.3846 25.6259 12.451 27.6923 15 27.6923ZM8.07693 21.9231L8.07693 23.0769C8.07693 26.9004 11.1765 30 15 30C18.8235 30 21.9231 26.9004 21.9231 23.0769L21.9231 21.9231L23.0769 21.9231C26.9004 21.9231 30 18.8235 30 15C30 11.1765 26.9004 8.07693 23.0769 8.07692L21.9231 8.07692L21.9231 6.92308C21.9231 3.09957 18.8235 9.30269e-07 15 5.96007e-07C11.1765 2.61745e-07 8.07693 3.09957 8.07693 6.92308L8.07693 8.07692L6.92308 8.07692C3.09957 8.07692 3.55295e-06 11.1765 3.21869e-06 15C2.88443e-06 18.8235 3.09957 21.9231 6.92308 21.9231L8.07693 21.9231ZM10.3846 19.6154L19.6154 19.6154L19.6154 10.3846L10.3846 10.3846L10.3846 19.6154ZM8.07693 10.3846L8.07693 19.6154L6.92308 19.6154C4.37407 19.6154 2.30769 17.549 2.30769 15C2.30769 12.451 4.37407 10.3846 6.92308 10.3846L8.07693 10.3846ZM10.3846 8.07692L19.6154 8.07692L19.6154 6.92308C19.6154 4.37407 17.549 2.30769 15 2.30769C12.451 2.30769 10.3846 4.37407 10.3846 6.92308L10.3846 8.07692ZM21.9231 10.3846L21.9231 19.6154L23.0769 19.6154C25.6259 19.6154 27.6923 17.549 27.6923 15C27.6923 12.451 25.6259 10.3846 23.0769 10.3846L21.9231 10.3846Z" fill="#7238FA"/>
<path id="Union" fill-rule="evenodd" clip-rule="evenodd" d="M9.23075 8.0769C9.868 8.0769 10.3846 8.5935 10.3846 9.23075C10.3846 9.868 9.868 10.3846 9.23075 10.3846C8.5935 10.3846 8.0769 9.868 8.0769 9.23075C8.0769 8.5935 8.5935 8.0769 9.23075 8.0769ZM9.23075 19.6154C9.868 19.6154 10.3846 20.132 10.3846 20.7692C10.3846 21.4065 9.868 21.9231 9.23075 21.9231C8.5935 21.9231 8.0769 21.4065 8.0769 20.7692C8.0769 20.132 8.5935 19.6154 9.23075 19.6154ZM21.9231 9.23075C21.9231 8.5935 21.4065 8.0769 20.7692 8.0769C20.132 8.0769 19.6154 8.5935 19.6154 9.23075C19.6154 9.868 20.132 10.3846 20.7692 10.3846C21.4065 10.3846 21.9231 9.868 21.9231 9.23075ZM20.7692 19.6154C21.4065 19.6154 21.9231 20.132 21.9231 20.7692C21.9231 21.4065 21.4065 21.9231 20.7692 21.9231C20.132 21.9231 19.6154 21.4065 19.6154 20.7692C19.6154 20.132 20.132 19.6154 20.7692 19.6154Z" fill="white"/>
</g>
<defs>
<clipPath id="clip0_87_15">
<rect width="137.75" height="30" fill="white"/>
</clipPath>
</defs>
</svg>
