<svg width="49" height="30" viewBox="0 0 49 30" fill="none" xmlns="http://www.w3.org/2000/svg">
<g id="Stripe_Logo,_revised_2016 2">
<g id="Group">
<path id="Vector" fill-rule="evenodd" clip-rule="evenodd" d="M48.7307 15.2898C48.7307 11.8381 47.0615 9.1145 43.8711 9.1145C40.6673 9.1145 38.7288 11.8381 38.7288 15.2628C38.7288 19.3212 41.0173 21.3707 44.3019 21.3707C45.9038 21.3707 47.1154 21.0066 48.0307 20.4943V17.7976C47.1154 18.2561 46.0654 18.5392 44.7327 18.5392C43.4269 18.5392 42.2692 18.0808 42.1211 16.4898H48.7038C48.7038 16.3145 48.7307 15.6134 48.7307 15.2898ZM42.0807 14.0089C42.0807 12.4853 43.0096 11.8516 43.8577 11.8516C44.6788 11.8516 45.5538 12.4853 45.5538 14.0089H42.0807Z" fill="#676F7E"/>
<path id="Vector_2" fill-rule="evenodd" clip-rule="evenodd" d="M33.5327 9.1145C32.2135 9.1145 31.3654 9.73473 30.8942 10.1662L30.7192 9.33023H27.7577V25.0516L31.1231 24.337L31.1365 20.5212C31.6211 20.8718 32.3346 21.3707 33.5192 21.3707C35.9288 21.3707 38.1231 19.4291 38.1231 15.155C38.1096 11.2448 35.8885 9.1145 33.5327 9.1145ZM32.725 18.4044C31.9308 18.4044 31.4596 18.1212 31.1365 17.7707L31.1231 12.7684C31.4731 12.3774 31.9577 12.1078 32.725 12.1078C33.95 12.1078 34.7981 13.483 34.7981 15.2493C34.7981 17.0561 33.9635 18.4044 32.725 18.4044Z" fill="#676F7E"/>
<path id="Vector_3" fill-rule="evenodd" clip-rule="evenodd" d="M23.127 8.31905L26.5058 7.59096V4.85388L23.127 5.56849V8.31905Z" fill="#676F7E"/>
<path id="Vector_4" d="M26.5058 9.34375H23.127V21.1415H26.5058V9.34375Z" fill="#676F7E"/>
<path id="Vector_5" fill-rule="evenodd" clip-rule="evenodd" d="M19.5058 10.3415L19.2904 9.34372H16.3827V21.1415H19.7481V13.146C20.5423 12.1078 21.8885 12.2965 22.3058 12.4448V9.34372C21.875 9.18192 20.3 8.88529 19.5058 10.3415Z" fill="#676F7E"/>
<path id="Vector_6" fill-rule="evenodd" clip-rule="evenodd" d="M12.775 6.41785L9.49039 7.11897L9.47693 17.919C9.47693 19.9145 10.9712 21.3841 12.9635 21.3841C14.0673 21.3841 14.875 21.1819 15.3192 20.9392V18.2021C14.8885 18.3774 12.7615 18.9976 12.7615 17.0021V12.2156H15.3192V9.34369H12.7615L12.775 6.41785Z" fill="#676F7E"/>
<path id="Vector_7" fill-rule="evenodd" clip-rule="evenodd" d="M3.675 12.7684C3.675 12.2426 4.10577 12.0403 4.81923 12.0403C5.8423 12.0403 7.13461 12.3505 8.15769 12.9033V9.73473C7.04038 9.28978 5.93653 9.1145 4.81923 9.1145C2.08653 9.1145 0.269226 10.5437 0.269226 12.9302C0.269226 16.6516 5.38461 16.0583 5.38461 17.6628C5.38461 18.283 4.84615 18.4853 4.0923 18.4853C2.975 18.4853 1.54807 18.0269 0.417303 17.4066V20.6156C1.66923 21.155 2.93461 21.3842 4.0923 21.3842C6.8923 21.3842 8.8173 19.9954 8.8173 17.5819C8.80384 13.5639 3.675 14.2785 3.675 12.7684Z" fill="#676F7E"/>
</g>
</g>
</svg>
