<svg width="48" height="49" viewBox="0 0 48 49" fill="none" xmlns="http://www.w3.org/2000/svg">
<g id="M">
<path id="Vector" d="M24 12.5V24.5" stroke="#1E3050" stroke-width="2" stroke-linejoin="round"/>
<g id="Vector_2">
<path d="M23.6492 11.5007L30.1259 6.31928C32.0902 4.74784 35 6.14636 35 8.66188V28.3396C35 30.8551 32.0903 32.2536 30.126 30.6823L23.6492 25.5014H20.0859L14.2279 40.9599C14.2126 41.0002 14.1948 41.0394 14.1745 41.0774C13.8293 41.7224 13.2264 42.2319 12.4618 42.4368C11.0011 42.8282 9.49065 41.978 9.09457 40.4998C8.95381 39.9745 8.97458 39.4409 9.12762 38.9559C9.13752 38.9245 9.14897 38.8936 9.16191 38.8634L14.8798 25.5014H12C8.13401 25.5014 5 22.3674 5 18.5014C5 14.6354 8.13401 11.5014 12 11.5014L23.6492 11.5007Z" fill="#1E3050"/>
<path d="M37 25.4291C40.3923 24.9439 43 22.0265 43 18.5C43 14.9735 40.3923 12.0561 37 11.5709V25.4291Z" fill="#1E3050"/>
</g>
</g>
</svg>
