<svg width="48" height="49" viewBox="0 0 48 49" fill="none" xmlns="http://www.w3.org/2000/svg">
<g id="C">
<path id="Union" d="M5 7.5C5 6.39543 5.89543 5.5 7 5.5H41C42.1046 5.5 43 6.39543 43 7.5V41.5C43 42.6046 42.1046 43.5 41 43.5H4C3.17157 43.5 2.5 42.8284 2.5 42C2.5 41.1716 3.17157 40.5 4 40.5H8.70414L7.01006 28.6414C6.96906 28.3544 7.05462 28.0638 7.24455 27.8448C7.43449 27.6258 7.71012 27.5 8.00001 27.5H24C24.2899 27.5 24.5655 27.6258 24.7555 27.8448C24.9454 28.0638 25.031 28.3544 24.99 28.6414L23.2959 40.5H33V17.5H17.5V22.5C17.5 23.3284 16.8284 24 16 24C15.1716 24 14.5 23.3284 14.5 22.5V17.5H7C5.89543 17.5 5 16.6046 5 15.5V7.5Z" fill="#1E3050"/>
</g>
</svg>
