<svg width="48" height="49" viewBox="0 0 48 49" fill="none" xmlns="http://www.w3.org/2000/svg">
<g id="C">
<path id="Subtract" fill-rule="evenodd" clip-rule="evenodd" d="M9 7.5C9 6.39543 9.89543 5.5 11 5.5H37C38.1046 5.5 39 6.39543 39 7.5V41.5C39 42.6046 38.1046 43.5 37 43.5H11C9.89543 43.5 9 42.6046 9 41.5V7.5ZM19 20.5C19 17.7386 21.2386 15.5 24 15.5C26.7614 15.5 29 17.7386 29 20.5C29 20.6376 28.9944 20.7741 28.9834 20.9092C30.7581 21.6769 32 23.4426 32 25.5C32 28.2614 29.7614 30.5 27 30.5C26.289 30.5 25.6125 30.3513 25 30.0837V33.2998H23V30.0837C22.3875 30.3513 21.711 30.5 21 30.5C18.2386 30.5 16 28.2614 16 25.5C16 23.4426 17.2419 21.6769 19.0166 20.9092C19.0056 20.7741 19 20.6376 19 20.5Z" fill="#1E3050"/>
</g>
</svg>
