<svg width="48" height="49" viewBox="0 0 48 49" fill="none" xmlns="http://www.w3.org/2000/svg">
<g id="C">
<path id="Subtract" d="M7 5.5C5.89543 5.5 5 6.39543 5 7.5V33.3488L12.8287 23.563C13.1134 23.2071 13.5443 23 14 23H23.3787L32.3787 14H28C27.1716 14 26.5 13.3284 26.5 12.5C26.5 11.6716 27.1716 11 28 11H36C36.8284 11 37.5 11.6716 37.5 12.5V20.5C37.5 21.3284 36.8284 22 36 22C35.1716 22 34.5 21.3284 34.5 20.5V16.1213L25.0607 25.5607C24.7794 25.842 24.3978 26 24 26H14.7209L7.1713 35.437C7.13673 35.4803 7.09979 35.5215 7.06066 35.5607L5 37.6213V41.5C5 42.6046 5.89543 43.5 7 43.5H41C42.1046 43.5 43 42.6046 43 41.5V7.5C43 6.39543 42.1046 5.5 41 5.5H7Z" fill="#1E3050"/>
</g>
</svg>
