<svg width="48" height="49" viewBox="0 0 48 49" fill="none" xmlns="http://www.w3.org/2000/svg">
<g id="C">
<path id="Subtract" fill-rule="evenodd" clip-rule="evenodd" d="M5 24.5C5 14.0066 13.5066 5.5 24 5.5C34.4934 5.5 43 14.0066 43 24.5C43 34.9934 34.4934 43.5 24 43.5C20.3787 43.5 16.9914 42.4859 14.1098 40.726L7.42569 42.6975C7.0856 42.7978 6.71781 42.7105 6.45906 42.4681C6.20031 42.2257 6.08929 41.8643 6.16726 41.5184L7.9382 33.6628C6.4284 31.0372 5 27.9436 5 24.5ZM25.5 14.5C25.5 13.6716 24.8284 13 24 13C23.1716 13 22.5 13.6716 22.5 14.5V24.5C22.5 25.3284 23.1716 26 24 26H34C34.8284 26 35.5 25.3284 35.5 24.5C35.5 23.6716 34.8284 23 34 23H25.5V14.5Z" fill="#1E3050"/>
</g>
</svg>
