<svg width="48" height="49" viewBox="0 0 48 49" fill="none" xmlns="http://www.w3.org/2000/svg">
<g id="M">
<g id="Vector">
<path d="M39.5 10.5C39.5 8.567 37.933 7 36 7H8C6.067 7 4.5 8.567 4.5 10.5V30.5C4.5 32.433 6.067 34 8 34H8.5V38.5C8.5 39.0682 8.821 39.5876 9.32918 39.8416C9.83736 40.0957 10.4455 40.0409 10.9 39.7L18.5 34H20C20.8284 34 21.5 33.3284 21.5 32.5C21.5 31.6716 20.8284 31 20 31H18C17.6754 31 17.3596 31.1053 17.1 31.3L11.5 35.5V32.5C11.5 31.6716 10.8284 31 10 31H8C7.72386 31 7.5 30.7761 7.5 30.5V10.5C7.5 10.2239 7.72386 10 8 10H36C36.2761 10 36.5 10.2239 36.5 10.5V18.5C36.5 19.3284 37.1716 20 38 20C38.8284 20 39.5 19.3284 39.5 18.5V10.5Z" fill="#1E3050"/>
<path d="M39.6419 35.9607L43.0698 39.4486C43.6505 40.0395 43.6423 40.9892 43.0514 41.5699C42.4606 42.1505 41.5109 42.1423 40.9302 41.5514L37.5318 38.0935C36.2435 38.9807 34.6824 39.5 33 39.5C28.5817 39.5 25 35.9183 25 31.5C25 27.0817 28.5817 23.5 33 23.5C37.4183 23.5 41 27.0817 41 31.5C41 33.1516 40.4995 34.6863 39.6419 35.9607Z" fill="#1E3050"/>
</g>
</g>
</svg>
