<svg width="48" height="49" viewBox="0 0 48 49" fill="none" xmlns="http://www.w3.org/2000/svg">
<g id="M">
<path id="Vector" fill-rule="evenodd" clip-rule="evenodd" d="M40 7.5C41.6569 7.5 43 8.84315 43 10.5V34.5C43 36.1569 41.6569 37.5 40 37.5H30.4142L24.7071 43.2071C24.3166 43.5976 23.6834 43.5976 23.2929 43.2071L17.5858 37.5H8C6.34315 37.5 5 36.1569 5 34.5V10.5C5 8.84315 6.34315 7.5 8 7.5H40ZM12.5 16.5C12.5 15.6716 13.1716 15 14 15H28C28.8284 15 29.5 15.6716 29.5 16.5C29.5 17.3284 28.8284 18 28 18H14C13.1716 18 12.5 17.3284 12.5 16.5ZM14 23C13.1716 23 12.5 23.6716 12.5 24.5C12.5 25.3284 13.1716 26 14 26H34C34.8284 26 35.5 25.3284 35.5 24.5C35.5 23.6716 34.8284 23 34 23H14Z" fill="#1E3050"/>
</g>
</svg>
