<svg width="48" height="49" viewBox="0 0 48 49" fill="none" xmlns="http://www.w3.org/2000/svg">
<g id="M">
<g id="Vector">
<path fill-rule="evenodd" clip-rule="evenodd" d="M5 13C5 8.85786 8.35786 5.5 12.5 5.5C16.6421 5.5 20 8.85786 20 13V13.7637H24C30.3951 13.7637 36.0516 16.9239 39.4937 21.7637L24.3916 21.7636C22.6934 21.7636 21 22.9467 21 24.7636V32.7636C21 34.5805 22.6934 35.7636 24.3916 35.7636H43V40.7637C43 42.4205 41.6569 43.7637 40 43.7637H8C6.34315 43.7637 5 42.4205 5 40.7637V35.7637H12C13.6569 35.7637 15 34.4205 15 32.7637V24.7637C15 23.1068 13.6569 21.7637 12 21.7637H5V13ZM8 13C8 10.5147 10.0147 8.5 12.5 8.5C14.9853 8.5 17 10.5147 17 13V13.7637H8V13Z" fill="#1E3050"/>
<path d="M43.0236 33.7636C43.0246 33.4666 43.0214 33.1181 43.0098 32.7334C43.006 32.6068 43.0012 32.4762 42.9954 32.3422C42.9683 31.0973 42.8213 29.8811 42.5653 28.7049C42.531 28.5444 42.4941 28.3842 42.4543 28.2252C42.1216 26.8678 41.643 25.5677 41.0363 24.3426C40.9368 24.1366 40.8392 23.9433 40.7454 23.7637L24.3916 23.7636C23.4481 23.7636 23 24.3713 23 24.7636V32.7636C23 33.1559 23.4481 33.7636 24.3916 33.7636H43.0236Z" fill="#1E3050"/>
<path d="M12 33.7637H5V23.7637H12C12.5523 23.7637 13 24.2114 13 24.7637V32.7637C13 33.316 12.5523 33.7637 12 33.7637Z" fill="#1E3050"/>
</g>
</g>
</svg>
