<svg width="48" height="49" viewBox="0 0 48 49" fill="none" xmlns="http://www.w3.org/2000/svg">
<g id="M">
<path id="Vector" fill-rule="evenodd" clip-rule="evenodd" d="M5 10.5C5 8.84315 6.34315 7.5 8 7.5H40C41.6569 7.5 43 8.84315 43 10.5V34.5C43 36.1569 41.6569 37.5 40 37.5L12.5089 37.5L6.66917 42.7587C6.37568 43.023 5.95411 43.0898 5.59329 42.9292C5.23247 42.7685 5 42.4106 5 42.0156V10.5ZM22 29.5C22 28.3954 22.8954 27.5 24 27.5C25.1046 27.5 26 28.3954 26 29.5C26 30.6046 25.1046 31.5 24 31.5C22.8954 31.5 22 30.6046 22 29.5ZM25.5 14.5C25.5 13.6716 24.8284 13 24 13C23.1716 13 22.5 13.6716 22.5 14.5V22.5C22.5 23.3284 23.1716 24 24 24C24.8284 24 25.5 23.3284 25.5 22.5V14.5Z" fill="#1E3050"/>
</g>
</svg>
