<svg width="48" height="49" viewBox="0 0 48 49" fill="none" xmlns="http://www.w3.org/2000/svg">
<g id="M">
<g id="Vector">
<path d="M37.5 12.5C37.5 10.567 35.933 9 34 9H8C6.067 9 4.5 10.567 4.5 12.5V33.5C4.5 34.8807 5.61929 36 7 36H10.5V40.5C10.5 41.0682 10.821 41.5876 11.3292 41.8416C11.8374 42.0957 12.4455 42.0409 12.9 41.7L20.5 36H23.9688C24.7972 36 25.4688 35.3284 25.4688 34.5C25.4688 33.6716 24.7972 33 23.9688 33H20C19.6754 33 19.3596 33.1053 19.1 33.3L13.5 37.5V34.5C13.5 33.6716 12.8284 33 12 33H7.5V12.5C7.5 12.2239 7.72386 12 8 12H34C34.2761 12 34.5 12.2239 34.5 12.5V20.5C34.5 21.3284 35.1716 22 36 22C36.8284 22 37.5 21.3284 37.5 20.5V12.5Z" fill="#1E3050"/>
<path d="M28.9393 33.5607C29.5251 34.1464 30.4749 34.1464 31.0607 33.5607L34.5 30.1213V40.5C34.5 41.3284 35.1716 42 36 42C36.8284 42 37.5 41.3284 37.5 40.5V30.1213L40.9393 33.5607C41.5251 34.1464 42.4749 34.1464 43.0607 33.5607C43.6464 32.9749 43.6464 32.0251 43.0607 31.4393L37.0607 25.4393C36.4749 24.8536 35.5251 24.8536 34.9393 25.4393L28.9393 31.4393C28.3536 32.0251 28.3536 32.9749 28.9393 33.5607Z" fill="#1E3050"/>
</g>
</g>
</svg>
