<svg width="48" height="49" viewBox="0 0 48 49" fill="none" xmlns="http://www.w3.org/2000/svg">
<g id="M">
<g id="Vector">
<path d="M34 7C35.933 7 37.5 8.567 37.5 10.5V20.5C37.5 21.3284 36.8284 22 36 22C35.1716 22 34.5 21.3284 34.5 20.5V10.5C34.5 10.2239 34.2761 10 34 10H8C7.72386 10 7.5 10.2239 7.5 10.5V31H10C10.8284 31 11.5 31.6716 11.5 32.5V35.5L17.1 31.3C17.3596 31.1053 17.6754 31 18 31H24C24.8284 31 25.5 31.6716 25.5 32.5C25.5 33.3284 24.8284 34 24 34H18.5L10.9 39.7C10.4455 40.0409 9.83736 40.0957 9.32918 39.8416C8.821 39.5876 8.5 39.0682 8.5 38.5V34H7C5.61929 34 4.5 32.8807 4.5 31.5V10.5C4.5 8.567 6.067 7 8 7H34Z" fill="#1E3050"/>
<path d="M36 25C36.8284 25 37.5 25.6716 37.5 26.5V31H42C42.8284 31 43.5 31.6716 43.5 32.5C43.5 33.3284 42.8284 34 42 34H37.5V38.5C37.5 39.3284 36.8284 40 36 40C35.1716 40 34.5 39.3284 34.5 38.5V34H30C29.1716 34 28.5 33.3284 28.5 32.5C28.5 31.6716 29.1716 31 30 31H34.5V26.5C34.5 25.6716 35.1716 25 36 25Z" fill="#1E3050"/>
</g>
</g>
</svg>
