<svg width="48" height="49" viewBox="0 0 48 49" fill="none" xmlns="http://www.w3.org/2000/svg">
<g id="C">
<g id="Vector">
<path d="M21.8095 34.8553C18.2901 32.3124 16 28.1737 16 23.5C16 20.2582 17.1018 17.2738 18.9515 14.9007C18.0116 14.6395 17.0216 14.5 16 14.5C9.92487 14.5 5 19.4249 5 25.5V34.5C5 35.6046 5.89543 36.5 7 36.5H16C18.125 36.5 20.1207 35.9002 21.8095 34.8553Z" fill="#1E3050"/>
<path d="M30 35.5C23.3726 35.5 18 30.1274 18 23.5C18 16.8726 23.3726 11.5 30 11.5C36.6274 11.5 42 16.8726 42 23.5V34.5C42 35.0523 41.5523 35.5 41 35.5H30Z" fill="#1E3050"/>
</g>
</g>
</svg>
