<svg width="48" height="49" viewBox="0 0 48 49" fill="none" xmlns="http://www.w3.org/2000/svg">
<path d="M5.00877 9.25607C5.53847 8.78568 6.23587 8.5 7 8.5H41C41.6092 8.5 42.1759 8.68156 42.6491 8.99353L24.6302 23.7108C24.2673 24.0073 23.7472 24.0119 23.379 23.722L5.00877 9.25607Z" fill="#1E3050"/>
<path d="M4.03574 11.0355C4.01221 11.1869 4 11.342 4 11.5V37.5C4 39.1569 5.34314 40.5 7 40.5H41C42.6569 40.5 44 39.1569 44 37.5V11.5C44 11.182 43.9505 10.8755 43.8588 10.5878L25.8954 25.2598C24.8066 26.1491 23.2462 26.1631 22.1416 25.2933L4.03574 11.0355Z" fill="#1E3050"/>
</svg>
