<svg width="48" height="49" viewBox="0 0 48 49" fill="none" xmlns="http://www.w3.org/2000/svg">
<g id="L">
<path id="Vector" fill-rule="evenodd" clip-rule="evenodd" d="M31.5 10.3945C31.5 9.01382 32.6193 7.89453 34 7.89453C35.3807 7.89453 36.5 9.01382 36.5 10.3945V21H19.5V10.3965C19.5 7.35892 17.0376 4.89648 14 4.89648C10.9624 4.89648 8.5 7.35892 8.5 10.3965V12.3965C8.5 13.2249 9.17157 13.8965 10 13.8965C10.8284 13.8965 11.5 13.2249 11.5 12.3965V10.3965C11.5 9.01577 12.6193 7.89648 14 7.89648C15.3807 7.89648 16.5 9.01577 16.5 10.3965V42.6046C16.5 43.433 17.1716 44.1046 18 44.1046C18.8284 44.1046 19.5 43.433 19.5 42.6046V36H36.5V42.6026C36.5 43.4311 37.1716 44.1026 38 44.1026C38.8284 44.1026 39.5 43.4311 39.5 42.6026V10.3945C39.5 7.35697 37.0376 4.89453 34 4.89453C30.9624 4.89453 28.5 7.35697 28.5 10.3945V12.3945C28.5 13.223 29.1716 13.8945 30 13.8945C30.8284 13.8945 31.5 13.223 31.5 12.3945V10.3945ZM19.5 24V33H36.5V24H19.5Z" fill="#1E3050"/>
</g>
</svg>
