<svg width="48" height="49" viewBox="0 0 48 49" fill="none" xmlns="http://www.w3.org/2000/svg">
<g id="C">
<path id="Union" fill-rule="evenodd" clip-rule="evenodd" d="M33.5 8.5C33.5 7.67157 32.8284 7 32 7C31.1716 7 30.5 7.67157 30.5 8.5V10.5C30.5 11.8807 29.3807 13 28 13H20C16.9624 13 14.5 15.4624 14.5 18.5V21.5H7C5.89543 21.5 5 22.3954 5 23.5V41.5C5 42.6046 5.89543 43.5 7 43.5H41C42.1046 43.5 43 42.6046 43 41.5V23.5C43 22.3954 42.1046 21.5 41 21.5H17.5V18.5C17.5 17.1193 18.6193 16 20 16H28C31.0376 16 33.5 13.5376 33.5 10.5V8.5ZM20 35C19.1716 35 18.5 35.6716 18.5 36.5C18.5 37.3284 19.1716 38 20 38H28C28.8284 38 29.5 37.3284 29.5 36.5C29.5 35.6716 28.8284 35 28 35H20ZM32.5 36.5C32.5 35.6716 33.1716 35 34 35H36C36.8284 35 37.5 35.6716 37.5 36.5C37.5 37.3284 36.8284 38 36 38H34C33.1716 38 32.5 37.3284 32.5 36.5ZM12 35C11.1716 35 10.5 35.6716 10.5 36.5C10.5 37.3284 11.1716 38 12 38H14C14.8284 38 15.5 37.3284 15.5 36.5C15.5 35.6716 14.8284 35 14 35H12ZM16.5 30.5C16.5 29.6716 17.1716 29 18 29H30C30.8284 29 31.5 29.6716 31.5 30.5C31.5 31.3284 30.8284 32 30 32H18C17.1716 32 16.5 31.3284 16.5 30.5Z" fill="#1E3050"/>
</g>
</svg>
