<svg width="48" height="49" viewBox="0 0 48 49" fill="none" xmlns="http://www.w3.org/2000/svg">
<g id="M">
<path id="Vector" fill-rule="evenodd" clip-rule="evenodd" d="M8 7.5C6.34315 7.5 5 8.84315 5 10.5V34.5C5 36.1569 6.34315 37.5 8 37.5H33.6667L41.4 43.3C41.703 43.5273 42.1084 43.5638 42.4472 43.3944C42.786 43.225 43 42.8788 43 42.5V10.5C43 8.84315 41.6569 7.5 40 7.5H8ZM18 19.5C16.3431 19.5 15 20.8431 15 22.5C15 24.1569 16.3431 25.5 18 25.5C19.6569 25.5 21 24.1569 21 22.5C21 20.8431 19.6569 19.5 18 19.5ZM30 19.5C28.3431 19.5 27 20.8431 27 22.5C27 24.1569 28.3431 25.5 30 25.5C31.6569 25.5 33 24.1569 33 22.5C33 20.8431 31.6569 19.5 30 19.5Z" fill="#1E3050"/>
</g>
</svg>
