<svg width="48" height="49" viewBox="0 0 48 49" fill="none" xmlns="http://www.w3.org/2000/svg">
<g id="M">
<g id="Vector">
<path d="M41 10.5C41 8.84315 39.6569 7.5 38 7.5H14C12.3431 7.5 11 8.84315 11 10.5V11.5H32C34.7614 11.5 37 13.7386 37 16.5V29.5H38C39.6569 29.5 41 28.1569 41 26.5V10.5Z" fill="#1E3050"/>
<path d="M8 13.5C6.34315 13.5 5 14.8431 5 16.5V32.5C5 34.1569 6.34315 35.5 8 35.5H11V40.5C11 40.8788 11.214 41.225 11.5528 41.3944C11.8916 41.5638 12.297 41.5273 12.6 41.3L20.3333 35.5H32C33.6569 35.5 35 34.1569 35 32.5V16.5C35 14.8431 33.6569 13.5 32 13.5H8Z" fill="#1E3050"/>
</g>
</g>
</svg>
