<svg width="48" height="49" viewBox="0 0 48 49" fill="none" xmlns="http://www.w3.org/2000/svg">
<g id="M">
<path id="Vector" fill-rule="evenodd" clip-rule="evenodd" d="M40 5.5C41.6569 5.5 43 6.84315 43 8.5V32.5C43 34.1569 41.6569 35.5 40 35.5H26.277L16.5145 41.3575C16.2056 41.5429 15.8208 41.5477 15.5073 41.3702C15.1938 41.1927 15 40.8603 15 40.5V35.5H8C6.34315 35.5 5 34.1569 5 32.5V8.5C5 6.84315 6.34315 5.5 8 5.5H40ZM30.7169 27.2169C30.1311 27.8027 29.1814 27.8027 28.5956 27.2169L24 22.6213L19.4032 27.2181C18.8174 27.8039 17.8677 27.8039 17.2819 27.2181C16.6961 26.6323 16.6961 25.6826 17.2819 25.0968L21.8787 20.5L17.2819 15.9032C16.6961 15.3174 16.6961 14.3677 17.2819 13.7819C17.8677 13.1961 18.8174 13.1961 19.4032 13.7819L24 18.3787L28.5956 13.7831C29.1814 13.1973 30.1311 13.1973 30.7169 13.7831C31.3027 14.3689 31.3027 15.3186 30.7169 15.9044L26.1213 20.5L30.7169 25.0956C31.3027 25.6814 31.3027 26.6311 30.7169 27.2169Z" fill="#1E3050"/>
</g>
</svg>
