<svg width="48" height="49" viewBox="0 0 48 49" fill="none" xmlns="http://www.w3.org/2000/svg">
<g id="M">
<path id="Vector" fill-rule="evenodd" clip-rule="evenodd" d="M30.5 12.5005V8.13244L17.5 14.6324V22.5005C17.5 23.3289 16.8284 24.0005 16 24.0005C15.1716 24.0005 14.5 23.3289 14.5 22.5005V14.8234L7.74278 12.1206C6.42905 11.5951 5 12.5626 5 13.9775V36.817C5 37.7036 5.58376 38.4844 6.43417 38.7353L15.6702 41.4596C15.9126 41.5311 16.1731 41.5082 16.3993 41.3954L30.5 34.3657V27.5005C30.5 26.672 31.1716 26.0005 32 26.0005C32.8284 26.0005 33.5 26.672 33.5 27.5005V34.1528L40.2786 36.7743C41.5891 37.2811 43 36.314 43 34.9089V13.1775C43 12.3597 42.5021 11.6243 41.7428 11.3205L33.5 8.02344V12.5005C33.5 13.3289 32.8284 14.0005 32 14.0005C31.1716 14.0005 30.5 13.3289 30.5 12.5005ZM33.4347 18.9377C33.6765 18.1453 33.2301 17.307 32.4377 17.0653C31.6491 16.8247 30.815 17.2657 30.5688 18.051L30.5643 18.0642C30.5581 18.082 30.5459 18.116 30.5269 18.1643C30.4889 18.2611 30.4239 18.414 30.3261 18.6071C30.1298 18.9943 29.8052 19.5353 29.306 20.1091C28.3231 21.2385 26.6256 22.5417 23.7534 23.0204C19.9536 23.6537 17.6314 26.0056 16.2973 28.1005C15.6313 29.1463 15.1961 30.1485 14.9264 30.8893C14.791 31.2613 14.6957 31.5719 14.633 31.7951C14.6016 31.9068 14.5783 31.997 14.5622 32.0625C14.5541 32.0952 14.5478 32.1219 14.5431 32.1419L14.5374 32.167L14.5354 32.1758L14.5347 32.1793L14.5344 32.1808C14.5342 32.1814 14.5341 32.1821 16 32.5L14.5341 32.1821C14.3585 32.9917 14.8725 33.7903 15.6821 33.9659C16.4913 34.1414 17.2896 33.628 17.4657 32.8191L17.4651 32.8216L17.4648 32.8229C17.4648 32.823 17.465 32.8222 17.4657 32.8191C17.4671 32.8129 17.4702 32.7998 17.4747 32.7816C17.4837 32.7452 17.4989 32.6858 17.5213 32.6063C17.566 32.447 17.6387 32.2087 17.7455 31.9154C17.9602 31.3255 18.3062 30.5308 18.8277 29.712C19.8686 28.0777 21.5464 26.4296 24.2466 25.9796C27.8744 25.375 30.1769 23.6782 31.569 22.0784C32.2573 21.2876 32.7139 20.5318 33.002 19.9633C33.1464 19.6785 33.2494 19.4388 33.3188 19.2624C33.3535 19.1742 33.3799 19.1015 33.3988 19.0467C33.4083 19.0193 33.416 18.9963 33.4219 18.9781L33.4296 18.9543L33.4325 18.9451L33.4337 18.9412L33.4342 18.9394C33.4345 18.9385 33.4347 18.9377 32.031 18.5095L33.4347 18.9377Z" fill="#1E3050"/>
</g>
</svg>
