<svg width="48" height="49" viewBox="0 0 48 49" fill="none" xmlns="http://www.w3.org/2000/svg">
<g id="M">
<path id="Vector" d="M21 8.5C21 6.84315 22.3431 5.5 24 5.5C25.6569 5.5 27 6.84315 27 8.5V13.5H32C32.8284 13.5 33.5 14.1716 33.5 15C33.5 15.8284 32.8284 16.5 32 16.5H29V19.4296C29 19.764 29.1671 20.0762 29.4453 20.2617L33.6641 23.0742C34.4987 23.6306 35 24.5673 35 25.5704V40.5C35 42.1569 33.6569 43.5 32 43.5H16C14.3431 43.5 13 42.1569 13 40.5V25.5935C13 24.5983 13.4935 23.6679 14.3175 23.1097L18.5608 20.2353C18.8355 20.0492 19 19.7391 19 19.4073V16.5H16C15.1716 16.5 14.5 15.8284 14.5 15C14.5 14.1716 15.1716 13.5 16 13.5H21V8.5Z" fill="#1E3050"/>
</g>
</svg>
