<svg width="48" height="49" viewBox="0 0 48 49" fill="none" xmlns="http://www.w3.org/2000/svg">
<g id="M">
<g id="Vector">
<path d="M24.764 8.18219C25.364 7.59046 26.0152 7.08167 26.7031 6.6558C27.8707 14.3895 34.1127 20.6313 41.8464 21.7986C41.4073 22.508 40.88 23.1783 40.2645 23.7938L40.2534 23.8049C40.2232 23.8342 40.1912 23.8615 40.1576 23.8867L37.8231 25.6376C33.6389 27.961 28.2608 27.3464 24.7082 23.7938C21.1559 20.2416 20.5411 14.8643 22.8636 10.6803L24.5728 8.40142C24.6291 8.32637 24.6927 8.25243 24.764 8.18219Z" fill="#1E3050"/>
<path d="M40.2645 8.23745C43.4186 11.3915 44.2569 15.9845 42.7793 19.9034C35.4095 19.0996 29.4024 13.0926 28.5983 5.72287C29.8517 5.25019 31.1742 5.01445 32.4964 5.01563C35.3082 5.0182 38.1192 6.09214 40.2645 8.23745Z" fill="#1E3050"/>
<path fill-rule="evenodd" clip-rule="evenodd" d="M19.5154 15.1446L7.6878 30.9147C7.6878 30.9147 7.68496 30.9182 7.67937 30.9239C5.00421 33.6622 5.02369 38.0503 7.73775 40.7644C10.4518 43.4784 14.8399 43.4979 17.5782 40.8228L17.5836 40.8176L17.5874 40.8143L33.3577 28.9866C29.7466 29.2277 26.0541 27.9682 23.2939 25.208C20.5339 22.448 19.2744 18.7556 19.5154 15.1446ZM22.2345 28.3888C22.8203 27.803 22.8203 26.8533 22.2345 26.2675C21.6487 25.6817 20.699 25.6817 20.1132 26.2675L17.2847 29.0959C16.699 29.6817 16.699 30.6314 17.2847 31.2172C17.8705 31.803 18.8203 31.803 19.4061 31.2172L22.2345 28.3888Z" fill="#1E3050"/>
</g>
</g>
</svg>
