<svg width="48" height="49" viewBox="0 0 48 49" fill="none" xmlns="http://www.w3.org/2000/svg">
<g id="M">
<g id="Vector">
<path d="M25.502 7.52928C25.502 6.70085 24.8304 6.02929 24.0019 6.0293C23.1735 6.02931 22.502 6.70089 22.502 7.52931L22.502 13.1862C22.502 14.0146 23.1735 14.6862 24.002 14.6862C24.8304 14.6861 25.502 14.0146 25.502 13.1861L25.502 7.52928Z" fill="#1E3050"/>
<path d="M9.85922 37.2261C9.07818 36.4451 9.07818 35.1787 9.85922 34.3977L22.5871 21.6698C23.3682 20.8887 24.6345 20.8887 25.4156 21.6698L26.8298 23.084C27.6108 23.865 27.6108 25.1314 26.8298 25.9124L14.1019 38.6403C13.3208 39.4214 12.0545 39.4214 11.2734 38.6403L9.85922 37.2261Z" fill="#1E3050"/>
<path d="M33.8145 24.5C33.8145 23.6716 34.486 23 35.3145 23L40.9713 23C41.7998 23 42.4713 23.6716 42.4713 24.5C42.4713 25.3285 41.7997 26 40.9713 26L35.3144 26C34.486 26 33.8144 25.3284 33.8145 24.5Z" fill="#1E3050"/>
<path d="M37.7892 12.8321C38.375 12.2464 38.375 11.2966 37.7892 10.7108C37.2034 10.125 36.2536 10.125 35.6679 10.7108L30.011 16.3677C29.4252 16.9535 29.4252 17.9032 30.011 18.489C30.5968 19.0748 31.5465 19.0748 32.1323 18.489L37.7892 12.8321Z" fill="#1E3050"/>
<path d="M11.6288 12.1249C12.2146 11.5391 13.1643 11.5391 13.7501 12.1249L17.9927 16.3676C18.5785 16.9534 18.5785 17.9031 17.9927 18.4889C17.4069 19.0747 16.4572 19.0747 15.8714 18.4889L11.6288 14.2462C11.043 13.6604 11.043 12.7107 11.6288 12.1249Z" fill="#1E3050"/>
<path d="M32.1329 30.5097C31.5471 29.9239 30.5974 29.9239 30.0116 30.5097C29.4258 31.0954 29.4258 32.0452 30.0116 32.631L34.2542 36.8736C34.84 37.4594 35.7898 37.4594 36.3756 36.8736C36.9614 36.2878 36.9614 35.3381 36.3756 34.7523L32.1329 30.5097Z" fill="#1E3050"/>
</g>
</g>
</svg>
