<svg width="48" height="48" viewBox="0 0 48 48" fill="none" xmlns="http://www.w3.org/2000/svg">
<path d="M30 42H18" stroke="#1E3050" stroke-linecap="round" stroke-linejoin="round"/>
<path d="M24 42L24 34" stroke="#1E3050" stroke-linejoin="round"/>
<path d="M12 18H14C15.1046 18 16 18.8954 16 20V32C16 33.1046 16.8954 34 18 34H30C31.1046 34 32 33.1046 32 32V20C32 18.8954 32.8954 18 34 18H36" stroke="#1E3050" stroke-linecap="round" stroke-linejoin="round"/>
<path d="M22 7C22 6.44772 22.4477 6 23 6H25C25.5523 6 26 6.44772 26 7V27C26 27.5523 25.5523 28 25 28H23C22.4477 28 22 27.5523 22 27V7Z" stroke="#1E3050" stroke-linecap="round" stroke-linejoin="round"/>
</svg>
