<svg width="48" height="48" viewBox="0 0 48 48" fill="none" xmlns="http://www.w3.org/2000/svg">
<path d="M21 7C21 5.89543 21.8954 5 23 5H25C26.1046 5 27 5.89543 27 7V27C27 28.1046 26.1046 29 25 29H23C21.8954 29 21 28.1046 21 27V7Z" fill="#1E3050"/>
<path d="M10.5 18C10.5 17.1716 11.1716 16.5 12 16.5H14C15.933 16.5 17.5 18.067 17.5 20V32C17.5 32.2761 17.7239 32.5 18 32.5H30C30.2761 32.5 30.5 32.2761 30.5 32V20C30.5 18.067 32.067 16.5 34 16.5H36C36.8284 16.5 37.5 17.1716 37.5 18C37.5 18.8284 36.8284 19.5 36 19.5H34C33.7239 19.5 33.5 19.7239 33.5 20V32C33.5 33.933 31.933 35.5 30 35.5H25.5V40.5H30C30.8284 40.5 31.5 41.1716 31.5 42C31.5 42.8284 30.8284 43.5 30 43.5H18C17.1716 43.5 16.5 42.8284 16.5 42C16.5 41.1716 17.1716 40.5 18 40.5H22.5V35.5H18C16.067 35.5 14.5 33.933 14.5 32V20C14.5 19.7239 14.2761 19.5 14 19.5H12C11.1716 19.5 10.5 18.8284 10.5 18Z" fill="#1E3050"/>
</svg>
