<svg width="136" height="135" viewBox="0 0 136 135" fill="none" xmlns="http://www.w3.org/2000/svg">
<g id="B/badminton-plastic-shuttlecock/Standard/Free">
<path id="Ellipse 2739" d="M68 120.937C81.9797 120.937 90.5574 109.604 90.5574 95.6241H45.4426C45.4426 109.604 54.0203 120.937 68 120.937Z" stroke="#1E3050" stroke-width="1.77551" stroke-linejoin="round"/>
<path id="Vector" d="M68 20.9189V95.6293" stroke="#1E3050" stroke-width="1.77551"/>
<path id="Vector_2" d="M45.039 21.9171L56.1173 95.6284" stroke="#1E3050" stroke-width="1.77551"/>
<path id="Vector_3" d="M45.039 21.9171L56.1173 95.6284" stroke="#1E3050" stroke-width="1.77551"/>
<path id="Vector_4" d="M56.75 14.0634C51.461 14.0634 46.9297 17.3077 45.0377 21.9148L45.0385 21.9171L56.1168 95.6285L67.9995 95.6293V20.9189L68 20.9158C65.8959 16.8456 61.6478 14.0634 56.75 14.0634Z" fill="#FACC15" stroke="#1E3050" stroke-width="1.77551"/>
<path id="Vector_5" d="M35.6567 16.875C29.4435 16.875 24.4067 21.9118 24.4067 28.125L48.0648 95.625L56.1173 95.6275L45.039 21.9162L45.0381 21.9139C43.0236 18.8771 39.5739 16.875 35.6567 16.875Z" fill="#F97316" stroke="#1E3050" stroke-width="1.77551"/>
<path id="Vector_6" d="M90.9597 21.9171L79.8814 95.6284" stroke="#1E3050" stroke-width="1.77551"/>
<path id="Vector_7" d="M111.594 28.125C111.594 21.9118 106.557 16.875 100.344 16.875C96.4269 16.875 92.9773 18.8771 90.9627 21.9139L90.9597 21.9162L79.8814 95.6275L87.9361 95.625L111.594 28.125Z" fill="#2DD4BF" stroke="#1E3050" stroke-width="1.77551"/>
<g id="Vector_8">
<path d="M79.2504 14.0634C74.3526 14.0634 70.1045 16.8456 68.0004 20.9158L68 20.9189V95.6293L79.8814 95.6285L90.9597 21.9171L90.9627 21.9148C89.0707 17.3077 84.5395 14.0634 79.2504 14.0634Z" fill="#4ADE80"/>
<path d="M68.0004 20.9158L67.2118 20.5081L67.1433 20.6407L67.1219 20.7883L68.0004 20.9158ZM90.9627 21.9148L91.494 22.626C91.8186 22.3836 91.9378 21.9522 91.784 21.5775L90.9627 21.9148ZM68 20.9189L67.1214 20.7914L67.1122 20.8548V20.9189H68ZM68 95.6293H67.1122V96.5172L68.0001 96.5171L68 95.6293ZM90.9597 21.9171L90.4284 21.2058C90.2411 21.3457 90.1165 21.5539 90.0818 21.7851L90.9597 21.9171ZM79.8814 95.6285L79.8814 96.5162L80.6457 96.5162L80.7593 95.7604L79.8814 95.6285ZM68.7891 21.3235C70.7467 17.5366 74.6974 14.9512 79.2504 14.9512V13.1757C74.0078 13.1757 69.4623 16.1546 67.2118 20.5081L68.7891 21.3235ZM79.2504 14.9512C84.1671 14.9512 88.3815 17.9664 90.1415 22.252L91.784 21.5775C89.7599 16.649 84.9118 13.1757 79.2504 13.1757V14.9512ZM67.1122 20.9189V95.6293H68.8878V20.9189H67.1122ZM90.0818 21.7851L79.0035 95.4965L80.7593 95.7604L91.8376 22.049L90.0818 21.7851ZM68.0001 96.5171L79.8814 96.5162L79.8813 94.7407L67.9999 94.7416L68.0001 96.5171ZM67.1219 20.7883L67.1214 20.7914L68.8786 21.0463L68.879 21.0432L67.1219 20.7883ZM90.4315 21.2035L90.4284 21.2058L91.4909 22.6283L91.494 22.626L90.4315 21.2035Z" fill="#1E3050"/>
</g>
<path id="Vector 785" d="M41.1821 75.9375H94.8362" stroke="#1E3050" stroke-width="1.77551"/>
<g id="Vector_9">
<path d="M45.4426 95.6241H90.5574C90.5574 97.0718 90.4654 98.4911 90.2849 99.8724H45.715C45.5346 98.4911 45.4426 97.0718 45.4426 95.6241Z" fill="#036C4E"/>
<path d="M90.5574 95.6241H91.4451C91.4451 95.1338 91.0477 94.7363 90.5574 94.7363V95.6241ZM45.4426 95.6241V94.7363C44.9523 94.7363 44.5548 95.1338 44.5548 95.6241H45.4426ZM45.715 99.8724L44.8348 99.9874L44.9357 100.76H45.715V99.8724ZM90.2849 99.8724V100.76H91.0643L91.1652 99.9874L90.2849 99.8724ZM90.5574 94.7363H45.4426V96.5118H90.5574V94.7363ZM46.5953 99.7574C46.42 98.4151 46.3304 97.0342 46.3304 95.6241H44.5548C44.5548 97.1094 44.6492 98.5671 44.8348 99.9874L46.5953 99.7574ZM89.6696 95.6241C89.6696 97.0342 89.58 98.4151 89.4047 99.7574L91.1652 99.9874C91.3508 98.5671 91.4451 97.1094 91.4451 95.6241H89.6696ZM45.715 100.76H90.2849V98.9847H45.715V100.76Z" fill="#036C4E"/>
</g>
</g>
</svg>
