<svg width="30" height="30" viewBox="0 0 30 30" fill="none" xmlns="http://www.w3.org/2000/svg">
<path fill-rule="evenodd" clip-rule="evenodd" d="M15 27.6923C17.549 27.6923 19.6154 25.6259 19.6154 23.0769L19.6154 21.9231L10.3846 21.9231L10.3846 23.0769C10.3846 25.6259 12.451 27.6923 15 27.6923ZM8.07693 21.9231L8.07693 23.0769C8.07693 26.9004 11.1765 30 15 30C18.8235 30 21.9231 26.9004 21.9231 23.0769L21.9231 21.9231L23.0769 21.9231C26.9004 21.9231 30 18.8235 30 15C30 11.1765 26.9004 8.07693 23.0769 8.07692L21.9231 8.07692L21.9231 6.92308C21.9231 3.09957 18.8235 9.30269e-07 15 5.96007e-07C11.1765 2.61745e-07 8.07693 3.09957 8.07693 6.92308L8.07693 8.07692L6.92308 8.07692C3.09957 8.07692 3.55295e-06 11.1765 3.21869e-06 15C2.88443e-06 18.8235 3.09957 21.9231 6.92308 21.9231L8.07693 21.9231ZM10.3846 19.6154L19.6154 19.6154L19.6154 10.3846L10.3846 10.3846L10.3846 19.6154ZM8.07693 10.3846L8.07693 19.6154L6.92308 19.6154C4.37407 19.6154 2.30769 17.549 2.30769 15C2.30769 12.451 4.37407 10.3846 6.92308 10.3846L8.07693 10.3846ZM10.3846 8.07692L19.6154 8.07692L19.6154 6.92308C19.6154 4.37407 17.549 2.30769 15 2.30769C12.451 2.30769 10.3846 4.37407 10.3846 6.92308L10.3846 8.07692ZM21.9231 10.3846L21.9231 19.6154L23.0769 19.6154C25.6259 19.6154 27.6923 17.549 27.6923 15C27.6923 12.451 25.6259 10.3846 23.0769 10.3846L21.9231 10.3846Z" fill="#7238FA"/>
</svg>
